<svg width="430" height="328" viewBox="0 0 430 328" fill="none" xmlns="http://www.w3.org/2000/svg">
<g clip-path="url(#clip0_2078_30)">
<rect width="430" height="328" fill="white"/>
<path d="M53.4879 13.1726C35.7519 6.00374 15 -12 15 -12H438.367C438.367 -12 493.791 85.1423 438.367 115.025C400.913 135.218 365.186 132.452 318.567 121.608C242.647 103.95 263.504 74.7829 198.766 45.7033C181.543 37.9668 140.597 26.6828 120.706 23.6289C94.4405 19.5962 76.8704 22.6237 53.4879 13.1726Z" fill="url(#paint0_linear_2078_30)"/>
<path fill-rule="evenodd" clip-rule="evenodd" d="M52.6949 116.908C53.567 116 54.4796 115.131 55.4297 114.303L96.6653 185.726C95.4805 186.133 94.2718 186.489 93.0418 186.791L52.6949 116.908ZM51.296 118.438C50.4323 119.431 49.6144 120.465 48.8458 121.536L87.1042 187.801C88.427 187.673 89.7318 187.483 91.0158 187.235L51.296 118.438ZM45.503 127.041C46.1451 125.773 46.8496 124.543 47.6124 123.353L84.9115 187.957C84.2767 187.985 83.6383 188 82.9964 188C82.2127 188 81.434 187.978 80.6608 187.936L45.503 127.041ZM44.4776 129.218C43.8447 130.669 43.2914 132.163 42.8231 133.694L73.5626 186.936C75.099 187.289 76.6675 187.557 78.263 187.736L44.4776 129.218ZM41.169 142.123C41.3475 140.17 41.6598 138.255 42.0966 136.389L70.868 186.222C69.0016 185.66 67.1899 184.972 65.443 184.167L41.169 142.123ZM40.9934 145.773C40.993 145.847 40.9928 145.922 40.9928 145.996C40.9928 161.626 49.5299 175.262 62.1956 182.496L40.9934 145.773ZM101.908 183.512C100.814 184.065 99.6918 184.571 98.545 185.028L56.9729 113.023C57.937 112.261 58.9352 111.541 59.965 110.864L101.908 183.512ZM103.652 182.579C104.72 181.974 105.759 181.324 106.766 180.632L64.8832 108.088C63.7755 108.618 62.6946 109.196 61.6432 109.817L103.652 182.579ZM111.241 177.086C110.322 177.921 109.367 178.716 108.377 179.468L66.6951 107.273C67.8347 106.793 68.9998 106.361 70.188 105.981L111.241 177.086ZM112.712 175.682C113.62 174.774 114.486 173.824 115.308 172.836L75.9049 104.589C74.6295 104.806 73.3736 105.08 72.14 105.409L112.712 175.682ZM118.913 167.786C118.205 168.951 117.441 170.079 116.626 171.167L78.0121 104.285C79.3523 104.127 80.7117 104.031 82.0874 104.002L118.913 167.786ZM120.048 165.799C120.75 164.488 121.385 163.136 121.947 161.747L88.8352 104.395C87.372 104.192 85.8846 104.064 84.3772 104.015L120.048 165.799ZM124.177 154.314C123.832 156.028 123.384 157.704 122.838 159.336L91.3668 104.827C93.0782 105.173 94.7519 105.623 96.3809 106.17L124.177 154.314ZM124.677 151.228C124.89 149.514 125 147.768 125 145.996C125 145.459 124.99 144.925 124.97 144.393L105.366 110.439C103.444 109.227 101.417 108.166 99.3009 107.274L124.677 151.228ZM109.244 113.201C117.293 119.652 122.916 129.005 124.527 139.673L109.244 113.201Z" fill="#BABBBC"/>
<path d="M39 279.042C16.0404 295.441 -9 333.042 -9 333.042V395.542H430.5C430.5 395.542 483.961 184.605 403 188.042C377.688 189.116 368.794 193.03 346.022 203.05L345 203.5C305.331 220.952 287.098 259.987 244 264.542C218.566 267.23 179 256.542 179 256.542C179 256.542 138.725 247.045 113 250.042C82.1698 253.633 64.2572 261.001 39 279.042Z" fill="url(#paint1_linear_2078_30)"/>
</g>
<defs>
<linearGradient id="paint0_linear_2078_30" x1="228.039" y1="70.4886" x2="290.503" y2="-92.2019" gradientUnits="userSpaceOnUse">
<stop stop-color="#0B6C79"/>
<stop offset="1" stop-color="white"/>
</linearGradient>
<linearGradient id="paint1_linear_2078_30" x1="374" y1="206.541" x2="-9.00001" y2="335.541" gradientUnits="userSpaceOnUse">
<stop stop-color="#0B6C79"/>
<stop offset="0.881984" stop-color="#939C9D" stop-opacity="0.6"/>
</linearGradient>
<clipPath id="clip0_2078_30">
<rect width="430" height="328" fill="white"/>
</clipPath>
</defs>
</svg>
