<svg width="430" height="433" viewBox="0 0 430 433" fill="none" xmlns="http://www.w3.org/2000/svg">
<g clip-path="url(#clip0_2078_30)">
<rect width="430" height="433" fill="white"/>
<path d="M53.4879 13.1726C35.7519 6.00374 15 -12 15 -12H438.367C438.367 -12 493.791 85.1423 438.367 115.025C400.913 135.218 365.186 132.452 318.567 121.608C242.647 103.95 263.504 74.7829 198.766 45.7033C181.543 37.9668 140.597 26.6828 120.706 23.6289C94.4405 19.5962 76.8704 22.6237 53.4879 13.1726Z" fill="url(#paint0_linear_2078_30)"/>
<path fill-rule="evenodd" clip-rule="evenodd" d="M53.3359 157.286C54.1995 156.365 55.1041 155.482 56.047 154.641L97.182 225.889C95.9889 226.283 94.7721 226.625 93.5344 226.912L53.3359 157.286ZM51.9506 158.84C51.0951 159.849 50.2864 160.898 49.5278 161.985L87.5555 227.851C88.8872 227.739 90.2012 227.566 91.4946 227.333L51.9506 158.84ZM46.2357 167.578C46.8648 166.291 47.5579 165.04 48.3107 163.831L85.3466 227.979C84.8983 227.993 84.4482 228 83.9964 228C83.01 228 82.0315 227.966 81.062 227.899L46.2357 167.578ZM45.232 169.793C44.6129 171.272 44.076 172.795 43.6271 174.354L73.8932 226.777C75.4442 227.16 77.0292 227.457 78.6427 227.662L45.232 169.793ZM42.0979 183.001C42.2393 180.994 42.5215 179.027 42.9348 177.109L71.1644 226.004C69.2632 225.394 67.4209 224.653 65.6484 223.791L42.0979 183.001ZM42 186.784C42.2749 201.723 50.349 214.756 62.3221 221.983L42 186.784ZM102.46 223.735C101.357 224.275 100.228 224.769 99.0741 225.213L57.5779 153.339C58.5341 152.565 59.525 151.831 60.5479 151.142L102.46 223.735ZM104.215 222.822C105.29 222.231 106.337 221.594 107.352 220.913L65.4323 148.307C64.3315 148.85 63.258 149.44 62.2142 150.075L104.215 222.822ZM111.86 217.428C110.934 218.25 109.971 219.031 108.974 219.77L67.2323 147.471C68.3638 146.978 69.5213 146.534 70.7022 146.14L111.86 217.428ZM113.345 216.046C114.26 215.152 115.134 214.217 115.965 213.243L76.3809 144.681C75.1136 144.913 73.8662 145.202 72.6414 145.545L113.345 216.046ZM119.615 208.27C118.895 209.418 118.122 210.529 117.298 211.599L78.4735 144.352C79.8035 144.178 81.1531 144.065 82.5192 144.018L119.615 208.27ZM120.768 206.314C121.481 205.026 122.129 203.696 122.706 202.329L89.2104 144.313C87.759 144.133 86.2846 144.028 84.7912 144L120.768 206.314ZM125.022 195.047C124.654 196.725 124.185 198.366 123.622 199.963L91.7166 144.701C93.4053 145.014 95.0585 145.429 96.6697 145.938L125.022 195.047ZM125.569 192.039C125.853 190.066 126 188.048 126 185.996C126 185.81 125.999 185.624 125.996 185.439L105.473 149.891C103.587 148.767 101.606 147.786 99.5444 146.964L125.569 192.039ZM109.198 152.39C118.14 159.106 124.314 169.308 125.703 180.978L109.198 152.39Z" fill="#BABBBC"/>
<path d="M39 384.042C16.0404 400.441 -9 438.042 -9 438.042V500.542H430.5C430.5 500.542 483.961 289.605 403 293.042C377.688 294.116 368.794 298.03 346.022 308.05L345 308.5C305.331 325.952 287.098 364.987 244 369.542C218.566 372.23 179 361.542 179 361.542C179 361.542 138.725 352.045 113 355.042C82.1698 358.633 64.2572 366.001 39 384.042Z" fill="url(#paint1_linear_2078_30)"/>
</g>
<defs>
<linearGradient id="paint0_linear_2078_30" x1="228.039" y1="70.4886" x2="290.503" y2="-92.2019" gradientUnits="userSpaceOnUse">
<stop stop-color="#0B6C79"/>
<stop offset="1" stop-color="white"/>
</linearGradient>
<linearGradient id="paint1_linear_2078_30" x1="374" y1="311.541" x2="-9.00001" y2="440.541" gradientUnits="userSpaceOnUse">
<stop stop-color="#0B6C79"/>
<stop offset="0.881984" stop-color="#939C9D" stop-opacity="0.6"/>
</linearGradient>
<clipPath id="clip0_2078_30">
<rect width="430" height="433" fill="white"/>
</clipPath>
</defs>
</svg>
