<svg width="242" height="242" viewBox="0 0 242 242" fill="none" xmlns="http://www.w3.org/2000/svg">
<rect width="242" height="242" fill="white"/>
<path d="M52.6599 162.704L50.8356 159.453L64.3278 148.59L66.1521 151.841L61.1226 155.89L69.7977 171.263L66.3645 174.027L57.6894 158.655L52.6599 162.704ZM86.2947 144.813C87.4074 146.808 88.0263 148.764 88.1513 150.682C88.2816 152.595 87.9853 154.368 87.2624 155.999C86.5448 157.625 85.4747 159.011 84.0522 160.157C82.5602 161.358 81.0007 162.054 79.3737 162.244C77.752 162.431 76.1838 162.076 74.6692 161.18C73.1503 160.278 71.8086 158.798 70.6442 156.739C69.5164 154.747 68.8901 152.792 68.7651 150.874C68.6358 148.951 68.9331 147.169 69.6571 145.529C70.3768 143.883 71.4505 142.485 72.8784 141.335C74.3597 140.143 75.9133 139.456 77.5393 139.275C79.1707 139.09 80.7453 139.453 82.2632 140.364C83.7821 141.265 85.1259 142.748 86.2947 144.813ZM82.508 147.187C81.7867 145.908 81.0166 144.968 80.1977 144.367C79.3798 143.756 78.5469 143.466 77.6988 143.496C76.8508 143.527 76.023 143.867 75.2155 144.517C74.3385 145.223 73.7102 146.091 73.3307 147.119C72.9564 148.143 72.8538 149.275 73.0228 150.514C73.1928 151.743 73.6595 153.029 74.4228 154.371C75.1431 155.66 75.9105 156.602 76.7251 157.198C77.5451 157.789 78.3796 158.065 79.2286 158.024C80.0788 157.975 80.9049 157.627 81.707 156.981C82.5787 156.279 83.2033 155.424 83.5808 154.415C83.9593 153.396 84.0657 152.275 83.9 151.051C83.73 149.821 83.266 148.533 82.508 147.187ZM93.9685 151.803L83.4691 133.179L89.9505 127.96C91.1912 126.961 92.4015 126.379 93.5815 126.214C94.7625 126.038 95.8515 126.241 96.8483 126.823C97.8462 127.394 98.6961 128.297 99.3979 129.53C100.099 130.772 100.48 132.056 100.542 133.381C100.605 134.697 100.34 135.977 99.7468 137.221C99.1534 138.466 98.2231 139.598 96.9557 140.619L92.8246 143.945L91.0408 140.793L94.6103 137.919C95.2842 137.377 95.7665 136.799 96.0573 136.186C96.3491 135.563 96.471 134.931 96.4229 134.291C96.3705 133.646 96.1696 133.019 95.8203 132.41C95.4678 131.786 95.053 131.331 94.576 131.045C94.0991 130.759 93.5696 130.665 92.9877 130.764C92.4069 130.852 91.7822 131.166 91.1137 131.704L88.7715 133.59L97.4418 149.006L93.9685 151.803ZM110.047 119.647C109.535 118.957 108.925 118.598 108.215 118.57C107.51 118.538 106.741 118.858 105.907 119.53C105.34 119.986 104.912 120.462 104.624 120.959C104.332 121.449 104.172 121.935 104.145 122.416C104.118 122.886 104.22 123.325 104.45 123.73C104.628 124.072 104.853 124.313 105.126 124.455C105.404 124.593 105.715 124.655 106.058 124.644C106.402 124.622 106.771 124.55 107.165 124.426C107.555 124.297 107.951 124.137 108.352 123.946L110.048 123.163C110.867 122.768 111.66 122.482 112.426 122.306C113.197 122.126 113.927 122.08 114.616 122.169C115.31 122.254 115.948 122.498 116.529 122.903C117.11 123.307 117.62 123.897 118.059 124.672C118.697 125.815 119.001 127.008 118.969 128.249C118.934 129.486 118.571 130.716 117.882 131.941C117.189 133.16 116.174 134.308 114.837 135.384C113.511 136.452 112.227 137.151 110.985 137.48C109.744 137.81 108.594 137.745 107.535 137.284C106.477 136.813 105.556 135.92 104.77 134.605L108.131 131.899C108.516 132.497 108.966 132.892 109.482 133.085C110 133.267 110.556 133.274 111.15 133.104C111.741 132.928 112.335 132.599 112.934 132.117C113.528 131.639 113.986 131.129 114.308 130.588C114.635 130.042 114.821 129.501 114.864 128.963C114.907 128.426 114.802 127.934 114.547 127.486C114.314 127.066 114.008 126.801 113.63 126.691C113.251 126.582 112.795 126.596 112.263 126.734C111.731 126.863 111.123 127.087 110.439 127.409L108.361 128.342C106.764 129.073 105.337 129.353 104.081 129.184C102.825 129.014 101.804 128.244 101.019 126.876C100.39 125.743 100.104 124.54 100.164 123.268C100.224 121.985 100.591 120.733 101.265 119.512C101.94 118.281 102.876 117.183 104.074 116.219C105.293 115.237 106.493 114.62 107.673 114.366C108.848 114.107 109.93 114.197 110.917 114.636C111.905 115.075 112.725 115.851 113.376 116.967L110.047 119.647ZM114.095 113.241L112.27 109.99L125.763 99.127L127.587 102.378L122.557 106.428L131.232 121.8L127.799 124.564L119.124 109.192L114.095 113.241ZM138.484 115.962L127.985 97.3381L134.466 92.1197C135.707 91.1208 136.905 90.5177 138.06 90.3104C139.22 90.0988 140.289 90.2654 141.265 90.8103C142.242 91.3455 143.082 92.2296 143.784 93.4626C144.48 94.6999 144.841 95.9522 144.865 97.2195C144.895 98.4825 144.598 99.7127 143.976 100.91C143.355 102.098 142.413 103.2 141.151 104.216L136.811 107.71L135.045 104.531L138.815 101.496C139.478 100.962 139.972 100.414 140.296 99.8537C140.62 99.293 140.772 98.721 140.752 98.1378C140.738 97.5503 140.556 96.952 140.206 96.343C139.854 95.719 139.451 95.2849 138.999 95.0408C138.543 94.7913 138.034 94.7339 137.472 94.8686C136.907 94.998 136.292 95.3296 135.629 95.8635L133.287 97.7494L141.957 113.166L138.484 115.962ZM142.572 100.348L151.439 105.532L147.604 108.619L138.826 103.364L142.572 100.348ZM156.272 101.641L152.55 104.637L147.721 81.4473L152.197 77.8436L168.36 91.9079L164.638 94.9046L152.437 83.8387L152.308 83.942L156.272 101.641ZM151.923 94.4987L160.715 87.4204L162.432 90.5062L153.641 97.5846L151.923 94.4987ZM159.029 77.0631L157.205 73.8119L170.697 62.949L172.521 66.2002L167.492 70.2496L176.167 85.6223L172.734 88.3865L164.059 73.0137L159.029 77.0631Z" fill="black" fill-opacity="0.2"/>
</svg>
